<svg xmlns="http://www.w3.org/2000/svg" width="1254" height="1254" viewBox="0 0 1254 1254" version="1.1">
	<rect x="0" y="0" width="100%" height="100%" rx="96" fill="#ffffff" />
	<path d="M 590.814 265.011 C 581.911 266.422, 573.346 268.826, 562.500 272.959 C 557 275.054, 550.016 277.486, 546.979 278.363 C 538.811 280.722, 532.522 285.145, 528.586 291.299 C 525.377 296.315, 524.806 296.724, 519.333 297.926 C 504.257 301.237, 479.320 313.943, 459.620 328.351 C 458.900 328.878, 456.563 328.030, 453.479 326.121 C 442.616 319.400, 427.218 316.538, 414.816 318.934 C 389.690 323.788, 371 346.872, 371 373.050 C 371 387.922, 376.172 401.631, 386.154 413.217 L 391.080 418.934 388.124 427.309 C 386.498 431.915, 383.090 443.292, 380.551 452.592 C 372.670 481.453, 369.247 490.513, 355.274 519.500 C 338.972 553.318, 334.420 563.963, 328.625 581.822 C 322.400 601.002, 321.467 606.069, 323.452 609.908 C 325.546 613.956, 327.797 615, 334.434 615 C 337.495 615, 340 615.241, 340 615.535 C 340 615.829, 338.034 619.541, 335.632 623.785 C 325.155 642.289, 317.309 662.398, 318.584 667.478 C 319.784 672.261, 323.398 674, 332.135 674 C 336.461 674, 340 674.207, 340 674.460 C 340 674.713, 335.979 683.150, 331.065 693.210 C 318.257 719.426, 310.955 738.164, 303.036 765.133 C 284.661 827.714, 281.464 881.569, 292.554 941.720 C 295.516 957.784, 297.706 966.872, 302.690 983.768 C 307.061 998.587, 308.931 1001, 316.047 1001 C 320.152 1001, 321.186 1000.568, 323.411 997.923 C 326.562 994.178, 326.683 990.758, 323.974 982 C 319.931 968.930, 313.942 943.743, 311.561 929.801 C 306.999 903.085, 306.507 897.290, 306.573 871 C 306.654 838.814, 309.068 820.763, 318.142 784.507 C 327.340 747.758, 342.728 709.055, 361.399 675.711 C 368.725 662.627, 369.492 659.024, 365.508 656.413 C 363.397 655.030, 361.334 654.890, 352.008 655.499 C 342.997 656.088, 341 655.970, 341 654.847 C 341 652.095, 352.729 630.177, 360.759 617.923 C 372.866 599.447, 372.154 597, 354.671 597 C 346.069 597, 344 596.722, 344 595.566 C 344 590.527, 358.172 555.600, 368.901 534.197 C 383.626 504.822, 389.340 489.870, 398.016 458 C 410.331 412.770, 422.301 389.600, 446.483 364.189 C 469.712 339.779, 502.840 319.912, 530.295 313.925 C 536.350 312.605, 539.511 309.976, 543.154 303.234 C 545.856 298.233, 547.419 297.479, 575 287.875 C 591.830 282.014, 609.114 281.096, 619.658 285.501 C 624.417 287.490, 629.226 287.374, 636.500 285.093 C 653.743 279.687, 670.124 282.475, 684.186 293.208 C 688.226 296.292, 689.631 296.752, 696.665 297.295 C 707.434 298.125, 707.578 298.206, 707.175 303.263 C 706.686 309.415, 709.115 311.161, 722 313.925 C 762.821 322.679, 806.831 354.935, 830.897 393.736 C 842.153 411.886, 847.674 425.885, 856.035 457.488 C 864.675 490.142, 869.825 503.727, 885.164 534.327 C 896.038 556.019, 910 590.471, 910 595.611 C 910 596.711, 907.743 597, 899.155 597 C 887.384 597, 885 598, 885 602.936 C 885 604.189, 888.921 611.353, 893.714 618.857 C 901.977 631.793, 911.078 648.718, 912.534 653.855 L 913.201 656.210 901.841 655.500 C 891.519 654.855, 890.264 654.965, 888.115 656.706 C 886.771 657.794, 885.763 659.674, 885.781 661.060 C 885.798 662.402, 889.270 669.350, 893.496 676.500 C 902.481 691.701, 917.128 721.219, 922.772 735.500 C 947.627 798.393, 954.301 870.256, 941.438 936.500 C 938.955 949.290, 933.949 969.232, 930.017 982 C 927.189 991.185, 927.377 994.531, 930.923 998.077 C 933.206 1000.360, 934.747 1001, 937.958 1001 C 944.657 1001, 946.591 998.984, 949.949 988.502 C 968.221 931.461, 972.913 866.822, 963.048 808.048 C 955.793 764.817, 941.765 724.892, 919.553 684.250 L 913.951 674 921.865 674 C 930.824 674, 933.414 672.677, 934.921 667.331 C 936.497 661.737, 929.635 643.683, 918.368 623.785 C 915.966 619.541, 914 615.829, 914 615.535 C 914 615.241, 916.735 615, 920.077 615 C 925.516 615, 926.474 614.680, 929.200 611.954 C 932.060 609.094, 932.204 608.591, 931.561 603.704 C 930.640 596.713, 921.888 570.227, 915.981 556.557 C 913.352 550.476, 906.421 535.661, 900.577 523.636 C 884.519 490.591, 881.477 482.559, 874.008 453.500 C 871.747 444.700, 868.502 433.199, 866.798 427.941 L 863.700 418.382 868.607 412.293 C 879.037 399.350, 883.522 385.915, 882.729 370 C 881.259 340.539, 858.030 318.080, 828.960 318.015 C 820.330 317.995, 812.234 320.124, 802.689 324.921 L 794.878 328.848 788.689 324.568 C 770.038 311.671, 745.442 300.158, 730.807 297.476 C 727.752 296.916, 727.002 296.286, 726.462 293.825 C 726.102 292.190, 724.459 289.315, 722.810 287.437 C 719.452 283.612, 711.544 280.674, 701.464 279.507 C 697.382 279.034, 694.238 277.940, 691.500 276.040 C 674.487 264.230, 650.723 260.894, 631.622 267.633 C 628.153 268.857, 627.048 268.786, 621.128 266.958 C 613.509 264.605, 599.181 263.684, 590.814 265.011 M 415.929 338.304 C 405.566 341.242, 397.807 347.921, 393.101 357.954 C 390.843 362.769, 390.500 364.818, 390.500 373.500 C 390.500 382.395, 390.816 384.185, 393.363 389.697 C 394.937 393.106, 397.011 396.605, 397.970 397.473 C 399.598 398.946, 400.074 398.411, 405.107 389.452 C 411.985 377.210, 423.431 361.947, 434.226 350.625 L 442.688 341.750 438.312 339.814 C 432.730 337.345, 421.891 336.613, 415.929 338.304 M 822.500 337.598 C 819.955 338.223, 811.634 341.172, 811.082 341.645 C 810.851 341.842, 813.422 344.500, 816.793 347.551 C 828.911 358.517, 845.248 379.998, 852 393.843 C 853.375 396.662, 854.813 398.976, 855.195 398.984 C 855.578 398.993, 857.603 395.536, 859.695 391.302 C 863.341 383.926, 863.500 383.182, 863.495 373.552 C 863.490 364.780, 863.156 362.800, 860.869 358 C 854.943 345.560, 844.474 338.271, 831.444 337.512 C 827.625 337.289, 823.600 337.328, 822.500 337.598 M 482.907 419.326 C 468.321 427.025, 464.969 447.784, 476.239 460.620 C 480.598 465.584, 486.129 467.951, 493.434 467.978 C 504.395 468.019, 513.483 461.026, 516.656 450.110 C 520.325 437.491, 513.857 423.199, 502.282 418.348 C 497.085 416.170, 488.020 416.628, 482.907 419.326 M 750.444 418.886 C 742.634 422.434, 736 433.279, 736 442.500 C 736 448.193, 738.994 455.987, 742.806 460.220 C 752.469 470.947, 768.594 470.948, 778.036 460.222 C 787.174 449.840, 786.970 435.437, 777.524 424.211 C 771.730 417.325, 759.273 414.876, 750.444 418.886 M 607.500 470.002 C 581.189 474.664, 564.835 488.219, 566.281 504.165 C 567.814 521.069, 589.585 541.334, 612.379 547.074 L 617 548.237 617 575.751 C 617 602.299, 616.923 603.391, 614.808 606.882 C 606.150 621.176, 590.085 631.597, 573.257 633.836 C 550.361 636.883, 532.752 622.902, 525.940 596.266 C 520.432 574.728, 523.690 550.897, 534.628 532.712 C 537.014 528.745, 538.974 524.938, 538.983 524.250 C 539.011 522.183, 535.162 519, 532.635 519 C 524.493 519, 511.381 541.862, 507.974 562 C 507.276 566.125, 506.740 574.225, 506.784 580 C 507.104 622.866, 532.265 653, 567.734 653 C 586.794 653, 607.622 643.646, 621.649 628.787 L 626.799 623.332 634.743 630.916 C 667.035 661.745, 712.494 659.942, 734.094 626.975 C 748.719 604.654, 751.474 570.239, 740.736 544 C 734.870 529.664, 726.794 519, 721.804 519 C 718.916 519, 714.987 522.039, 715.017 524.250 C 715.026 524.938, 717.065 528.875, 719.548 533 C 732.869 555.127, 734.425 585.584, 723.413 608.663 C 718.158 619.674, 711.580 626.902, 703.270 630.796 C 698.043 633.246, 696.418 633.499, 686 633.492 C 675.257 633.484, 674.006 633.270, 667 630.248 C 656.630 625.774, 646.558 617.912, 641.298 610.186 L 637 603.872 637 576.125 L 637 548.378 642.241 547.035 C 645.124 546.296, 651.480 543.649, 656.365 541.152 C 674.188 532.042, 688 515.193, 688 502.562 C 688 492.087, 680.047 482.063, 667.195 476.339 C 655.326 471.053, 648.574 469.802, 630 469.449 C 620.375 469.266, 610.250 469.515, 607.500 470.002 M 595.868 679.390 C 594.863 681.597, 594.973 682.313, 596.591 684.105 C 598.972 686.741, 607.979 691.269, 614.198 692.956 C 621.273 694.876, 638.062 693.883, 645.157 691.125 C 655.441 687.127, 660.490 682.598, 658.394 679.250 C 656.801 676.705, 653.298 676.644, 646.500 679.041 C 636.937 682.414, 622.558 682.816, 611.988 680.006 C 598.412 676.397, 597.252 676.353, 595.868 679.390 M 485.077 815.589 C 481.861 818.294, 481.031 822.320, 482.949 825.904 C 483.471 826.879, 487.875 830.853, 492.737 834.736 C 520.264 856.717, 543.274 889.143, 553.944 920.993 C 559.070 936.294, 561.345 951.491, 560.531 965 C 559.510 981.944, 559.503 981.842, 562.033 984.535 C 563.773 986.387, 565.380 987, 568.500 987 C 574.069 987, 576.667 984.143, 578.111 976.436 C 579.601 968.476, 578.616 941.642, 576.480 932 C 566.986 889.151, 540 848.026, 502.167 818.750 C 493.510 812.052, 490.043 811.410, 485.077 815.589 M 750 820.216 C 720.625 842.405, 695.048 877.767, 683.080 912.738 C 677.754 928.298, 675.950 938.142, 675.335 955 C 674.430 979.773, 676.745 987, 685.585 987 C 689.124 987, 690.266 986.473, 692.516 983.799 C 694.799 981.086, 695.118 979.981, 694.610 976.549 C 692.180 960.140, 692.995 947.079, 697.546 929.500 C 706.485 894.967, 732.110 857.369, 763.274 833.063 C 766.999 830.158, 770.487 826.959, 771.024 825.956 C 774.188 820.043, 769.866 812.983, 763.104 813.020 C 760.198 813.036, 757.659 814.430, 750 820.216 M 423.455 923.455 C 421.698 925.212, 421 927.005, 421 929.763 C 421 934.390, 422.098 935.923, 428 939.542 C 438.787 946.155, 456.232 959.997, 465 968.901 C 472.388 976.402, 475.708 980.742, 479.934 988.416 C 486.455 1000.258, 489.029 1003.464, 494.086 1006.044 C 498.709 1008.402, 499.296 1008.428, 503.460 1006.452 C 506.782 1004.876, 509 1001.472, 509 997.953 C 509 995.289, 509.700 995.490, 512.653 999 C 517.332 1004.560, 526.856 1002.405, 528.617 995.389 C 530.356 988.461, 524.237 970.864, 517.599 963.701 C 514.267 960.106, 509.271 960.018, 506.001 963.499 C 503.718 965.929, 503.686 966.211, 504.822 973.749 C 506.063 981.975, 505.469 989.320, 503.613 988.709 C 502.263 988.265, 498.039 982.502, 492 972.866 C 486.988 964.868, 473.184 950.329, 462.500 941.796 C 458.650 938.721, 450.430 932.784, 444.234 928.602 C 431.477 919.995, 427.821 919.089, 423.455 923.455 M 813.602 926.060 C 788.984 941.834, 769.418 960.033, 760 975.919 C 754.242 985.631, 750.363 990.342, 748.879 989.425 C 747.628 988.652, 747.792 979.629, 749.180 972.909 C 750.208 967.931, 750.142 966.865, 748.667 964.615 C 747.736 963.194, 745.855 961.751, 744.487 961.407 C 739.846 960.243, 737.105 961.796, 733.295 967.753 C 725.915 979.291, 722.885 993.695, 726.776 998.749 C 730.492 1003.577, 738.673 1003.161, 742.317 997.958 L 743.890 995.712 744.603 998.606 C 746.336 1005.635, 751.371 1009.023, 757.218 1007.093 C 762.975 1005.193, 767.520 1000.496, 772.031 991.783 C 781.463 973.567, 796.696 958.661, 824.171 940.766 C 833.096 934.953, 834.850 931.970, 832.562 926.495 C 829.589 919.378, 824.224 919.255, 813.602 926.060 M 532.635 950.073 C 529.218 952.760, 529.216 956.384, 532.625 964.905 C 534.488 969.560, 535.381 973.942, 535.701 979.984 C 536.248 990.300, 537.404 993.641, 541.091 995.547 C 545.225 997.685, 547.818 997.336, 550.930 994.224 C 556.399 988.754, 555.743 974.484, 549.401 961 C 543.515 948.482, 538.670 945.325, 532.635 950.073 M 711.268 950.428 C 707.306 953.762, 701.314 967.035, 700.001 975.386 C 698.553 984.596, 699.548 990.702, 703.070 994.224 C 706.167 997.321, 708.776 997.684, 712.835 995.585 C 716.732 993.570, 717.820 990.658, 718.282 981 C 718.558 975.231, 719.542 970.067, 721.344 964.925 C 724.715 955.311, 724.718 952.710, 721.365 950.073 C 717.898 947.345, 714.802 947.454, 711.268 950.428" stroke="none" fill="#111111" fill-rule="evenodd"/>
</svg>