<svg xmlns="http://www.w3.org/2000/svg" viewBox="0 0 320 660" width="320" height="660" font-family="-apple-system,'Segoe UI',Roboto,Helvetica,Arial,sans-serif">
  <defs>
    <clipPath id="screen2"><rect x="8" y="8" width="304" height="644" rx="36"/></clipPath>
  </defs>
  <rect x="2" y="2" width="316" height="656" rx="42" fill="#000000"/>
  <g clip-path="url(#screen2)">
    <rect x="8" y="8" width="304" height="644" fill="#0D1117"/>
    <text x="34" y="36" fill="#E6EDF3" font-size="12" font-weight="600">9:41</text>
    <rect x="256" y="26" width="24" height="12" rx="3" fill="none" stroke="#8B949E"/>
    <rect x="258" y="28" width="16" height="8" rx="1.5" fill="#8B949E"/>
    <!-- header -->
    <text x="24" y="72" fill="#8B949E" font-size="15">‹</text>
    <text x="98" y="72" fill="#E6EDF3" font-size="17" font-weight="600">Qwen3.5 2B</text>
    <text x="256" y="72" fill="#8B949E" font-size="13">Share</text>
    <!-- model chip strip -->
    <rect x="24" y="88" width="98" height="28" rx="14" fill="#E8A33D"/>
    <text x="38" y="106" fill="#0D1117" font-size="11.5" font-weight="600">Qwen3.5 2B</text>
    <rect x="130" y="88" width="90" height="28" rx="14" fill="#161B22" stroke="#2D333B"/>
    <text x="144" y="106" fill="#8B949E" font-size="11.5" font-weight="600">SmolLM3 3B</text>
    <rect x="228" y="88" width="92" height="28" rx="14" fill="#161B22" stroke="#2D333B"/>
    <text x="242" y="106" fill="#8B949E" font-size="11.5" font-weight="600">Gemma 4 E4B</text>
    <line x1="8" y1="128" x2="312" y2="128" stroke="#2D333B"/>
    <!-- user bubble -->
    <rect x="88" y="146" width="208" height="64" rx="18" fill="#2F3B4C"/>
    <text x="104" y="172" fill="#E6EDF3" font-size="13">Give me three ideas for a weekend</text>
    <text x="104" y="192" fill="#E6EDF3" font-size="13">project using a Raspberry Pi</text>
    <!-- assistant bubble -->
    <rect x="24" y="224" width="248" height="188" rx="18" fill="#161B22" stroke="#2D333B"/>
    <text x="40" y="252" fill="#E6EDF3" font-size="13">Here are three fun ones:</text>
    <text x="40" y="280" fill="#E6EDF3" font-size="13">1. <tspan font-weight="700">Bird feeder camera</tspan> — motion-</text>
    <text x="40" y="298" fill="#E6EDF3" font-size="13">triggered photos of visitors.</text>
    <text x="40" y="326" fill="#E6EDF3" font-size="13">2. <tspan font-weight="700">Pi-hole</tspan> — network-wide ad blocker,</text>
    <text x="40" y="344" fill="#E6EDF3" font-size="13">install via <tspan font-family="Menlo,monospace" font-size="11.5" fill="#8B949E">curl pi-hole.net</tspan></text>
    <text x="40" y="372" fill="#E6EDF3" font-size="13">3. <tspan font-weight="700">Retro game console</tspan> with</text>
    <text x="40" y="390" fill="#E6EDF3" font-size="13">RetroPie.</text>
    <text x="40" y="404" fill="#6E7681" font-size="10">31.4 tok/s</text>
    <!-- streaming bubble -->
    <rect x="24" y="426" width="200" height="44" rx="18" fill="#161B22" stroke="#2D333B"/>
    <text x="40" y="453" fill="#E6EDF3" font-size="13">Want a parts list for #1?<tspan fill="#E8A33D">▌</tspan></text>
    <!-- input bar -->
    <line x1="8" y1="580" x2="312" y2="580" stroke="#2D333B"/>
    <rect x="24" y="594" width="196" height="44" rx="18" fill="#161B22" stroke="#2D333B"/>
    <text x="40" y="621" fill="#6E7681" font-size="13">Message</text>
    <rect x="230" y="594" width="66" height="44" rx="22" fill="#F85149"/>
    <text x="247" y="621" fill="#0D1117" font-size="13" font-weight="700">Stop</text>
  </g>
</svg>
