<svg xmlns="http://www.w3.org/2000/svg" viewBox="0 0 320 660" width="320" height="660" font-family="-apple-system,'Segoe UI',Roboto,Helvetica,Arial,sans-serif">
  <defs>
    <clipPath id="screen9"><rect x="8" y="8" width="304" height="644" rx="36"/></clipPath>
  </defs>
  <rect x="2" y="2" width="316" height="656" rx="42" fill="#000000"/>
  <g clip-path="url(#screen9)">
    <rect x="8" y="8" width="304" height="644" fill="#FFFFFF"/>
    <text x="34" y="36" fill="#0D0D0D" font-size="12" font-weight="600">9:41</text>
    <rect x="256" y="26" width="24" height="12" rx="3" fill="none" stroke="#5D5D5D"/>
    <rect x="258" y="28" width="16" height="8" rx="1.5" fill="#5D5D5D"/>
    <!-- header -->
    <text x="24" y="74" fill="#5D5D5D" font-size="15">‹</text>
    <text x="112" y="74" fill="#0D0D0D" font-size="17" font-weight="600">Quick actions</text>
    <!-- shared text card -->
    <rect x="24" y="92" width="272" height="118" rx="12" fill="#FFFFFF" stroke="#E3E3E3"/>
    <text x="40" y="116" fill="#0D0D0D" font-size="12.5">Shared from Safari · heat-pumps-in-cold-</text>
    <text x="40" y="133" fill="#0D0D0D" font-size="12.5">climates.html</text>
    <text x="40" y="156" fill="#5D5D5D" font-size="12">Modern cold-climate heat pumps maintain</text>
    <text x="40" y="173" fill="#5D5D5D" font-size="12">full heating capacity down to −15°C, and</text>
    <text x="40" y="190" fill="#5D5D5D" font-size="12">newer models operate at −30°C…</text>
    <!-- action chips -->
    <rect x="24" y="226" width="106" height="30" rx="15" fill="#0D0D0D"/>
    <text x="36" y="246" fill="#FFFFFF" font-size="12" font-weight="600">📝 Summarize</text>
    <rect x="138" y="226" width="104" height="30" rx="15" fill="#FFFFFF" stroke="#E3E3E3"/>
    <text x="150" y="246" fill="#0D0D0D" font-size="12" font-weight="600">🔑 Key points</text>
    <rect x="250" y="226" width="46" height="30" rx="15" fill="#FFFFFF" stroke="#E3E3E3"/>
    <text x="259" y="246" fill="#0D0D0D" font-size="12" font-weight="600">🌍</text>
    <rect x="24" y="264" width="100" height="30" rx="15" fill="#FFFFFF" stroke="#E3E3E3"/>
    <text x="36" y="284" fill="#0D0D0D" font-size="12" font-weight="600">✏️ Proofread</text>
    <rect x="132" y="264" width="102" height="30" rx="15" fill="#FFFFFF" stroke="#E3E3E3"/>
    <text x="144" y="284" fill="#0D0D0D" font-size="12" font-weight="600">↩️ Draft reply</text>
    <rect x="242" y="264" width="54" height="30" rx="15" fill="#FFFFFF" stroke="#E3E3E3"/>
    <text x="252" y="284" fill="#0D0D0D" font-size="12" font-weight="600">📚 …</text>
    <!-- result card -->
    <rect x="24" y="316" width="272" height="228" rx="12" fill="#FFFFFF" stroke="#E3E3E3"/>
    <text x="40" y="342" fill="#0D0D0D" font-size="10.5" font-weight="700" letter-spacing="1">SUMMARY</text>
    <text x="40" y="368" fill="#0D0D0D" font-size="13">Cold-climate heat pumps now heat</text>
    <text x="40" y="388" fill="#0D0D0D" font-size="13">reliably to −15°C and run to −30°C.</text>
    <text x="40" y="408" fill="#0D0D0D" font-size="13">Sizing and backup heat matter more</text>
    <text x="40" y="428" fill="#0D0D0D" font-size="13">than brand; rebates cut payback to</text>
    <text x="40" y="448" fill="#0D0D0D" font-size="13">6–9 years in most provinces.</text>
    <rect x="40" y="478" width="70" height="30" rx="15" fill="#F4F4F4" stroke="#E3E3E3"/>
    <text x="58" y="498" fill="#0D0D0D" font-size="12" font-weight="600">Copy</text>
    <rect x="118" y="478" width="112" height="30" rx="15" fill="#F4F4F4" stroke="#E3E3E3"/>
    <text x="132" y="498" fill="#0D0D0D" font-size="12" font-weight="600">Use as input</text>
    <!-- hint -->
    <text x="160" y="592" fill="#9A9A9A" font-size="11.5" text-anchor="middle">Share text to Marmot from any app,</text>
    <text x="160" y="610" fill="#9A9A9A" font-size="11.5" text-anchor="middle">or trigger via marmot://ask?text=…</text>
  </g>
</svg>
