<svg xmlns="http://www.w3.org/2000/svg" viewBox="0 0 320 660" width="320" height="660" font-family="-apple-system,'Segoe UI',Roboto,Helvetica,Arial,sans-serif">
  <defs>
    <clipPath id="screen"><rect x="8" y="8" width="304" height="644" rx="36"/></clipPath>
  </defs>
  <!-- phone frame -->
  <rect x="2" y="2" width="316" height="656" rx="42" fill="#000000"/>
  <g clip-path="url(#screen)">
    <rect x="8" y="8" width="304" height="644" fill="#0D1117"/>
    <!-- status bar -->
    <text x="34" y="36" fill="#E6EDF3" font-size="12" font-weight="600">9:41</text>
    <rect x="256" y="26" width="24" height="12" rx="3" fill="none" stroke="#8B949E"/>
    <rect x="258" y="28" width="16" height="8" rx="1.5" fill="#8B949E"/>
    <!-- header -->
    <text x="24" y="74" fill="#E6EDF3" font-size="17" font-weight="600">Marmot</text>
    <text x="240" y="74" fill="#8B949E" font-size="13">Settings</text>
    <!-- chat card 1 -->
    <rect x="24" y="96" width="272" height="92" rx="12" fill="#161B22" stroke="#2D333B"/>
    <text x="40" y="122" fill="#E6EDF3" font-size="14" font-weight="600">Plan a 3-day Banff itinerary…</text>
    <text x="40" y="142" fill="#8B949E" font-size="11.5">Day 1: Lake Louise sunrise, then the Plain of</text>
    <text x="40" y="157" fill="#8B949E" font-size="11.5">Six Glaciers tea house hike. Day 2: Moraine…</text>
    <text x="40" y="177" fill="#E8A33D" font-size="11" font-weight="600">Qwen3.5 4B</text>
    <text x="238" y="177" fill="#6E7681" font-size="11">7/18/2026</text>
    <!-- chat card 2 -->
    <rect x="24" y="200" width="272" height="92" rx="12" fill="#161B22" stroke="#2D333B"/>
    <text x="40" y="226" fill="#E6EDF3" font-size="14" font-weight="600">Explain how transformers work…</text>
    <text x="40" y="246" fill="#8B949E" font-size="11.5">A transformer processes all tokens in parallel</text>
    <text x="40" y="261" fill="#8B949E" font-size="11.5">using self-attention, which lets each token…</text>
    <text x="40" y="281" fill="#E8A33D" font-size="11" font-weight="600">Qwen3.5 2B</text>
    <text x="238" y="281" fill="#6E7681" font-size="11">7/17/2026</text>
    <!-- chat card 3 -->
    <rect x="24" y="304" width="272" height="92" rx="12" fill="#161B22" stroke="#2D333B"/>
    <text x="40" y="330" fill="#E6EDF3" font-size="14" font-weight="600">Rewrite this email politely</text>
    <text x="40" y="350" fill="#8B949E" font-size="11.5">Hi Sam, thanks for the update — I appreciate</text>
    <text x="40" y="365" fill="#8B949E" font-size="11.5">the quick turnaround. One small thing…</text>
    <text x="40" y="385" fill="#E8A33D" font-size="11" font-weight="600">SmolLM3 3B</text>
    <text x="238" y="385" fill="#6E7681" font-size="11">7/15/2026</text>
    <!-- FABs -->
    <rect x="110" y="576" width="82" height="42" rx="21" fill="#1F2630" stroke="#2D333B"/>
    <text x="131" y="602" fill="#E6EDF3" font-size="13" font-weight="600">Models</text>
    <rect x="200" y="576" width="96" height="42" rx="21" fill="#E8A33D"/>
    <text x="219" y="602" fill="#0D1117" font-size="13" font-weight="700">New chat</text>
  </g>
</svg>
