<svg xmlns="http://www.w3.org/2000/svg" viewBox="0 0 320 660" width="320" height="660" font-family="-apple-system,'Segoe UI',Roboto,Helvetica,Arial,sans-serif">
  <defs>
    <clipPath id="screen4"><rect x="8" y="8" width="304" height="644" rx="36"/></clipPath>
  </defs>
  <rect x="2" y="2" width="316" height="656" rx="42" fill="#000000"/>
  <g clip-path="url(#screen4)">
    <rect x="8" y="8" width="304" height="644" fill="#FFFFFF"/>
    <text x="34" y="36" fill="#0D0D0D" font-size="12" font-weight="600">9:41</text>
    <rect x="256" y="26" width="24" height="12" rx="3" fill="none" stroke="#5D5D5D"/>
    <rect x="258" y="28" width="16" height="8" rx="1.5" fill="#5D5D5D"/>
    <!-- header -->
    <text x="24" y="74" fill="#0D0D0D" font-size="17" font-weight="600">Marmot</text>
    <text x="240" y="74" fill="#5D5D5D" font-size="13">Settings</text>
    <!-- chat cards (dimmed behind the sheet) -->
    <g opacity="0.35">
      <rect x="24" y="96" width="272" height="92" rx="12" fill="#FFFFFF" stroke="#E3E3E3"/>
      <text x="40" y="122" fill="#0D0D0D" font-size="14" font-weight="600">Plan a 3-day Banff itinerary…</text>
      <text x="40" y="142" fill="#5D5D5D" font-size="11.5">Day 1: Lake Louise sunrise, then the Plain of</text>
      <text x="40" y="157" fill="#5D5D5D" font-size="11.5">Six Glaciers tea house hike. Day 2: Moraine…</text>
      <text x="40" y="177" fill="#0D0D0D" font-size="11" font-weight="600">Qwen3.5 4B</text>
      <rect x="24" y="200" width="272" height="92" rx="12" fill="#FFFFFF" stroke="#E3E3E3"/>
      <text x="40" y="226" fill="#0D0D0D" font-size="14" font-weight="600">Explain how transformers work…</text>
      <text x="40" y="246" fill="#5D5D5D" font-size="11.5">A transformer processes all tokens in parallel</text>
      <text x="40" y="261" fill="#5D5D5D" font-size="11.5">using self-attention, which lets each token…</text>
      <text x="40" y="281" fill="#0D0D0D" font-size="11" font-weight="600">Qwen3.5 2B</text>
    </g>
    <!-- dim overlay -->
    <rect x="8" y="8" width="304" height="644" fill="#000000" opacity="0.45"/>
    <!-- action sheet -->
    <rect x="44" y="228" width="232" height="204" rx="14" fill="#F4F4F4" stroke="#E3E3E3"/>
    <text x="160" y="258" fill="#0D0D0D" font-size="14" font-weight="700" text-anchor="middle">Plan a 3-day Banff itinerary…</text>
    <line x1="44" y1="274" x2="276" y2="274" stroke="#E3E3E3"/>
    <text x="160" y="300" fill="#0D0D0D" font-size="14" font-weight="600" text-anchor="middle">Share as Markdown</text>
    <line x1="44" y1="314" x2="276" y2="314" stroke="#E3E3E3"/>
    <text x="160" y="340" fill="#0D0D0D" font-size="14" font-weight="600" text-anchor="middle">Export as JSON</text>
    <line x1="44" y1="354" x2="276" y2="354" stroke="#E3E3E3"/>
    <text x="160" y="380" fill="#D92D20" font-size="14" font-weight="600" text-anchor="middle">Delete</text>
    <line x1="44" y1="394" x2="276" y2="394" stroke="#E3E3E3"/>
    <text x="160" y="420" fill="#5D5D5D" font-size="14" font-weight="600" text-anchor="middle">Cancel</text>
    <!-- share-destination hint row -->
    <rect x="44" y="452" width="232" height="64" rx="14" fill="#FFFFFF" stroke="#E3E3E3"/>
    <text x="160" y="478" fill="#5D5D5D" font-size="11" text-anchor="middle">Save to</text>
    <text x="160" y="500" fill="#0D0D0D" font-size="12.5" font-weight="600" text-anchor="middle">Drive · OneDrive · Files · Mail</text>
  </g>
</svg>
