<svg xmlns="http://www.w3.org/2000/svg" viewBox="0 0 320 660" width="320" height="660" font-family="-apple-system,'Segoe UI',Roboto,Helvetica,Arial,sans-serif">
  <defs>
    <clipPath id="screen5"><rect x="8" y="8" width="304" height="644" rx="36"/></clipPath>
  </defs>
  <rect x="2" y="2" width="316" height="656" rx="42" fill="#000000"/>
  <g clip-path="url(#screen5)">
    <rect x="8" y="8" width="304" height="644" fill="#FFFFFF"/>
    <text x="34" y="36" fill="#0D0D0D" font-size="12" font-weight="600">9:41</text>
    <rect x="256" y="26" width="24" height="12" rx="3" fill="none" stroke="#5D5D5D"/>
    <rect x="258" y="28" width="16" height="8" rx="1.5" fill="#5D5D5D"/>
    <!-- header -->
    <text x="24" y="74" fill="#5D5D5D" font-size="15">‹</text>
    <text x="120" y="74" fill="#0D0D0D" font-size="17" font-weight="600">Settings</text>

    <!-- appearance -->
    <text x="24" y="112" fill="#0D0D0D" font-size="14" font-weight="600">Appearance</text>
    <text x="24" y="130" fill="#9A9A9A" font-size="11">Dark, light, or follow your device setting.</text>
    <rect x="24" y="140" width="86" height="32" rx="8" fill="#FFFFFF" stroke="#E3E3E3"/>
    <text x="45" y="161" fill="#5D5D5D" font-size="12.5" font-weight="600">System</text>
    <rect x="117" y="140" width="86" height="32" rx="8" fill="#FFFFFF" stroke="#E3E3E3"/>
    <text x="145" y="161" fill="#5D5D5D" font-size="12.5" font-weight="600">Dark</text>
    <rect x="210" y="140" width="86" height="32" rx="8" fill="#0D0D0D"/>
    <text x="236" y="161" fill="#FFFFFF" font-size="12.5" font-weight="600">Light</text>

    <!-- temperature -->
    <text x="24" y="210" fill="#0D0D0D" font-size="14" font-weight="600">Temperature</text>
    <text x="24" y="228" fill="#9A9A9A" font-size="11">Higher = more creative</text>
    <circle cx="204" cy="214" r="15" fill="#F4F4F4" stroke="#E3E3E3"/>
    <text x="200" y="219" fill="#0D0D0D" font-size="14" font-weight="700">−</text>
    <text x="238" y="219" fill="#0D0D0D" font-size="13" font-weight="700" text-anchor="middle">0.70</text>
    <circle cx="272" cy="214" r="15" fill="#F4F4F4" stroke="#E3E3E3"/>
    <text x="267" y="219" fill="#0D0D0D" font-size="14" font-weight="700">+</text>

    <!-- verify + gpu switches -->
    <text x="24" y="264" fill="#0D0D0D" font-size="14" font-weight="600">Verify answers</text>
    <text x="24" y="280" fill="#9A9A9A" font-size="11">Reflection + judge score each agent reply</text>
    <rect x="252" y="256" width="44" height="24" rx="12" fill="#0D0D0D"/>
    <circle cx="284" cy="268" r="9" fill="#FFFFFF"/>
    <text x="24" y="306" fill="#0D0D0D" font-size="14" font-weight="600">GPU acceleration (Android)</text>
    <text x="24" y="322" fill="#9A9A9A" font-size="11">Experimental · OpenCL on recent Snapdragons</text>
    <rect x="252" y="298" width="44" height="24" rx="12" fill="#F4F4F4" stroke="#E3E3E3"/>
    <circle cx="264" cy="310" r="9" fill="#FFFFFF" stroke="#E3E3E3"/>

    <!-- context length -->
    <text x="24" y="352" fill="#0D0D0D" font-size="14" font-weight="600">Context length</text>
    <rect x="24" y="362" width="86" height="30" rx="8" fill="#FFFFFF" stroke="#E3E3E3"/>
    <text x="49" y="382" fill="#5D5D5D" font-size="12.5" font-weight="600">2048</text>
    <rect x="117" y="362" width="86" height="30" rx="8" fill="#0D0D0D"/>
    <text x="142" y="382" fill="#FFFFFF" font-size="12.5" font-weight="600">4096</text>
    <rect x="210" y="362" width="86" height="30" rx="8" fill="#FFFFFF" stroke="#E3E3E3"/>
    <text x="235" y="382" fill="#5D5D5D" font-size="12.5" font-weight="600">8192</text>

    <!-- persona -->
    <text x="24" y="420" fill="#0D0D0D" font-size="14" font-weight="600">Persona</text>
    <rect x="24" y="430" width="72" height="26" rx="13" fill="#0D0D0D"/>
    <text x="38" y="447" fill="#FFFFFF" font-size="11.5" font-weight="600">Concise</text>
    <rect x="102" y="430" width="62" height="26" rx="13" fill="#FFFFFF" stroke="#E3E3E3"/>
    <text x="116" y="447" fill="#5D5D5D" font-size="11.5" font-weight="600">Coach</text>
    <rect x="170" y="430" width="58" height="26" rx="13" fill="#FFFFFF" stroke="#E3E3E3"/>
    <text x="184" y="447" fill="#5D5D5D" font-size="11.5" font-weight="600">Tutor</text>
    <rect x="234" y="430" width="62" height="26" rx="13" fill="#FFFFFF" stroke="#E3E3E3"/>
    <text x="247" y="447" fill="#5D5D5D" font-size="11.5" font-weight="600">Pirate</text>
    <!-- system prompt -->
    <text x="24" y="484" fill="#0D0D0D" font-size="14" font-weight="600">System prompt</text>
    <rect x="24" y="494" width="272" height="56" rx="12" fill="#FFFFFF" stroke="#E3E3E3"/>
    <text x="40" y="516" fill="#5D5D5D" font-size="12">You are a helpful assistant running locally</text>
    <text x="40" y="533" fill="#5D5D5D" font-size="12">on the user's phone. Be concise.</text>

    <!-- your data -->
    <text x="24" y="580" fill="#0D0D0D" font-size="14" font-weight="600">Your data</text>
    <rect x="24" y="590" width="128" height="38" rx="12" fill="#FFFFFF" stroke="#E3E3E3"/>
    <text x="88" y="614" fill="#0D0D0D" font-size="12.5" font-weight="600" text-anchor="middle">Export all chats</text>
    <rect x="168" y="590" width="128" height="38" rx="12" fill="#FFFFFF" stroke="#E3E3E3"/>
    <text x="232" y="614" fill="#0D0D0D" font-size="12.5" font-weight="600" text-anchor="middle">Import chats</text>
  </g>
</svg>
